{"title":"CMA_Awards_Individual_songs_11-11-2009","uid":5810876,"size":1219342418,"categoryP":"video","categoryS":"hd___tv_shows","magnet":"?xt=urn:btih:65a0dd29f171c55b87387e01428fb76b581a4ca6&amp;dn=CMA_Awards_Individual_songs_11-11-2009&amp;tr=udp%3A%2F%2Ftracker.openbittorrent.com%3A80&amp;tr=udp%3A%2F%2Fopen.demonii.com%3A1337&amp;tr=udp%3A%2F%2Ftracker.coppersurfer.tk%3A6969&amp;tr=udp%3A%2F%2Fexodus.desync.com%3A6969","seeders":0,"leechers":0,"uploader":"thetorrentlord","files":10,"time":1283625660,"description":"Cut from HD broadcast and compressed with SUPER                                                         General\n\nFormat                           : AVI\nFormat/Info                      : Audio Video Interleave\nFile size                        : 156 MiB\nDuration                         : 4mn 46s\nOverall bit rate                 : 4 576 Kbps\n\nDirector                         : created.with.SUPER(C).v2010.bld.37\nWriting application              : SUPER(C)   \n\nVideo\nID                               : 0\nFormat                           : MPEG-4 Visual\nFormat profile                   : Simple@L3\nFormat settings, BVOP            : No\nFormat settings, QPel            : No\nFormat settings, GMC             : No warppoints\nFormat settings, Matrix          : Default (H.263)\nCodec ID                         : XVID\nCodec ID/Hint                    : XviD\nDuration                         : 4mn 46s\nBit rate                         : 4 373 Kbps\nWidth                            : 1 280 pixels\nHeight                           : 720 pixels\nDisplay aspect ratio             : 16:9\nFrame rate                       : 29.970 fps\nColor space                      : YUV\nChroma subsampling               : 4:2:0\nBit depth                        : 8 bits\nScan type                        : Progressive\nBits/(Pixel*Frame)               : 0.158\nStream size                      : 150 MiB (96%)\nWriting library                  : XviD 1.1.2 (UTC 2006-11-01)\n\nAudio\nID                               : 1\nFormat                           : MPEG Audio\nFormat version                   : Version 1\nFormat profile                   : Layer 3\nMode                             : Joint stereo\nMode extension                   : MS Stereo\nCodec ID                         : 55\nCodec ID/Hint                    : MP3\nDuration                         : 4mn 46s\nBit rate mode                    : Constant\nBit rate                         : 192 Kbps\nChannel(s)                       : 2 channels\nSampling rate                    : 32.0 KHz\nStream size                      : 6.57 MiB (4%)\nAlignment                        : Aligned on interleaves\nInterleave, duration             : 36 ms (1.08 video frame)\nWriting library                  : LAME3.98\n\n\n","torrent":{"xt":"urn:btih:65a0dd29f171c55b87387e01428fb76b581a4ca6","amp;dn":"CMA_Awards_Individual_songs_11-11-2009","amp;tr":["udp%3A%2F%2Ftracker.openbittorrent.com%3A80","udp%3A%2F%2Fopen.demonii.com%3A1337","udp%3A%2F%2Ftracker.coppersurfer.tk%3A6969","udp%3A%2F%2Fexodus.desync.com%3A6969"],"infoHash":"65a0dd29f171c55b87387e01428fb76b581a4ca6","infoHashBuffer":{"type":"Buffer","data":[101,160,221,41,241,113,197,91,135,56,126,1,66,143,183,107,88,26,76,166]},"announce":[],"urlList":[]}}